<?xml version="1.0" standalone="no"?>
<!DOCTYPE svg PUBLIC "-//W3C//DTD SVG 20010904//EN"
 "http://www.w3.org/TR/2001/REC-SVG-20010904/DTD/svg10.dtd">
<svg version="1.0" xmlns="http://www.w3.org/2000/svg"
 width="431.000000pt" height="579.000000pt" viewBox="0 0 431.000000 579.000000"
 preserveAspectRatio="xMidYMid meet">

<g transform="translate(0.000000,579.000000) scale(0.100000,-0.100000)"
fill="#000000" stroke="none">
<path d="M0 2895 l0 -2895 928 2 c510 1 885 4 833 5 -91 4 -93 4 -86 26 16 51
22 182 10 203 -21 34 -48 184 -49 271 -1 71 -3 83 -18 83 -9 0 -20 -4 -23 -10
-3 -5 -29 -10 -56 -10 -31 0 -48 -4 -44 -10 3 -5 -1 -10 -9 -10 -19 0 -20 -11
-3 -30 9 -10 6 -10 -13 2 -14 8 -47 28 -75 44 l-50 29 35 2 c75 6 224 25 243
32 11 4 32 32 46 62 22 46 32 55 63 64 29 8 42 20 61 55 l24 45 56 -3 c54 -2
57 -1 63 25 3 16 8 35 10 44 2 8 9 69 14 135 5 67 22 169 39 234 16 63 34 162
41 220 11 101 23 136 61 191 10 14 27 69 38 123 19 93 43 154 111 276 34 63
129 155 169 165 14 3 44 15 66 25 127 59 251 104 330 121 102 21 180 24 191 7
4 -7 3 -8 -4 -4 -7 4 -12 2 -12 -4 0 -6 -4 -9 -9 -5 -5 3 -12 1 -16 -5 -3 -5
-15 -10 -26 -10 -10 0 -19 -7 -19 -15 0 -18 -4 -18 102 -20 48 -1 91 -4 94 -8
10 -10 54 -9 54 1 0 4 -5 13 -11 19 -8 8 -6 14 9 22 28 15 47 5 71 -34 11 -18
30 -39 42 -46 23 -12 23 -12 6 12 -32 44 -46 83 -34 91 25 16 122 4 111 -13
-3 -5 1 -6 9 -3 15 6 71 -71 62 -86 -8 -14 -74 -32 -96 -27 -10 3 -22 1 -25
-4 -3 -5 -23 -9 -45 -9 -86 0 -8 -50 85 -55 35 -1 69 -6 75 -9 6 -4 11 -3 11
1 0 5 9 9 20 10 12 1 20 -4 20 -13 0 -11 -6 -13 -20 -9 -12 4 -20 2 -20 -5 0
-6 -11 -5 -30 5 -25 13 -33 13 -44 3 -12 -11 -12 -17 0 -40 16 -31 12 -34 -68
-43 -135 -16 -147 -19 -235 -67 -40 -21 -73 -34 -73 -28 0 5 -7 10 -16 10 -11
0 -14 -6 -9 -22 4 -16 3 -19 -3 -9 -6 8 -12 9 -16 3 -8 -13 -49 -7 -100 15
-36 16 -38 19 -33 52 3 20 9 47 12 61 l7 25 -16 -25 c-9 -14 -19 -33 -22 -42
-8 -22 -11 -22 -46 -4 -24 12 -28 13 -28 1 0 -7 9 -16 19 -20 37 -11 45 -32
23 -59 -10 -14 -36 -71 -57 -128 -20 -57 -44 -117 -51 -135 -8 -17 -14 -38
-14 -46 0 -9 -5 -19 -10 -22 -6 -4 -9 -21 -6 -38 3 -18 3 -54 -1 -80 -5 -42
-9 -48 -25 -44 -14 4 -18 2 -14 -10 3 -8 -3 -26 -14 -40 -11 -14 -20 -31 -20
-37 0 -6 5 -4 11 4 8 12 9 9 5 -11 -4 -19 -1 -29 9 -33 11 -4 14 -13 9 -33 -9
-37 -22 -53 -45 -53 -28 0 -65 -92 -74 -183 -5 -45 -27 -93 -50 -109 -10 -7
-11 -12 -14 -44 0 -9 -7 -14 -13 -12 -23 8 -133 -188 -122 -217 3 -6 19 -17
37 -24 18 -7 26 -15 19 -18 -6 -2 -12 -12 -12 -21 0 -9 -5 -24 -11 -32 -8 -11
-9 -8 -5 15 5 22 4 26 -4 15 -18 -28 -12 -50 15 -50 22 0 25 3 19 28 -4 19 -3
23 4 13 8 -11 20 6 51 72 23 48 41 92 41 98 0 6 6 25 14 42 8 18 32 70 53 117
21 47 45 86 53 88 12 3 13 1 3 -9 -7 -7 -13 -26 -13 -42 0 -18 -4 -26 -11 -21
-7 4 -9 0 -5 -14 5 -14 1 -27 -12 -40 -13 -13 -18 -28 -14 -50 3 -21 0 -32 -7
-32 -7 0 -11 -8 -10 -17 1 -10 -3 -29 -9 -43 -33 -74 -52 -124 -52 -135 0 -7
11 -20 25 -29 14 -9 25 -25 25 -36 0 -10 5 -22 10 -25 7 -4 7 -13 0 -26 -7
-13 -7 -19 0 -19 15 0 12 -27 -6 -44 -8 -9 -13 -16 -10 -16 3 0 -2 -8 -11 -18
-15 -15 -24 -17 -48 -9 -16 6 -35 14 -41 18 -12 10 -34 -8 -34 -27 0 -7 10
-20 22 -28 21 -15 21 -16 3 -17 -11 -1 -24 -1 -28 0 -5 1 -6 -9 -3 -21 3 -13
3 -18 1 -12 -8 15 -65 4 -65 -13 0 -8 -4 -11 -10 -8 -6 3 -10 1 -10 -6 0 -7
-3 -10 -6 -6 -3 3 -2 12 2 19 5 7 10 24 12 38 2 13 12 41 24 61 25 45 21 72
-12 74 -33 3 -43 -15 -23 -38 13 -13 14 -20 5 -29 -7 -7 -12 -20 -12 -29 0
-17 -21 -18 -70 -4 -20 6 -65 -80 -81 -155 -7 -30 -20 -62 -30 -70 -22 -18
-69 -130 -69 -164 0 -22 -5 -25 -47 -29 -27 -2 500 -4 1169 -5 l1218 -2 0
2895 0 2895 -2155 0 -2155 0 0 -2895z m2540 1603 c0 -5 10 -3 23 3 22 12 22
12 4 -9 -18 -20 -18 -20 0 -25 14 -3 12 -5 -9 -11 -16 -5 -28 -12 -28 -16 0
-7 17 -4 73 16 10 4 16 13 13 20 -6 15 22 34 48 34 9 0 15 -6 14 -12 -2 -8 5
-12 16 -10 10 2 15 -1 12 -7 -8 -13 -46 -10 -47 4 0 5 -4 0 -9 -11 -5 -12 -21
-25 -37 -29 -15 -3 -31 -11 -34 -16 -3 -6 -17 -11 -30 -13 -13 -1 -39 -10 -56
-20 -18 -9 -33 -12 -33 -7 0 5 9 11 21 14 12 3 18 10 14 16 -3 6 1 14 9 17 9
3 16 11 16 16 0 6 -6 6 -15 -2 -8 -6 -23 -9 -34 -5 -14 4 -21 0 -26 -15 -7
-21 -25 -28 -25 -9 0 5 -4 8 -9 5 -5 -4 -4 5 2 18 7 14 14 23 16 21 2 -3 17 5
34 17 l29 21 -12 -23 -12 -22 25 18 c14 11 23 22 21 25 -2 3 3 6 11 6 8 0 15
-4 15 -9z m-120 -8 c0 -5 -11 -12 -25 -16 -14 -3 -25 -10 -25 -16 0 -5 -4 -7
-9 -4 -12 8 -41 -3 -41 -15 0 -5 12 -7 28 -3 26 6 26 6 7 -9 -11 -9 -27 -17
-36 -17 -9 0 -19 -3 -22 -7 -4 -3 -18 -7 -31 -8 -19 0 -22 2 -14 12 6 7 15 10
22 6 6 -3 8 -3 4 2 -6 6 13 42 39 75 2 2 8 -2 13 -10 8 -13 13 -13 37 2 31 20
53 23 53 8z m250 -34 c0 -3 -4 -8 -10 -11 -5 -3 -10 -1 -10 4 0 6 5 11 10 11
6 0 10 -2 10 -4z m-578 -46 c-18 -16 -36 -30 -39 -30 -4 0 -15 -7 -25 -17 -10
-9 -21 -13 -26 -9 -4 5 2 15 13 22 92 67 131 84 77 34z m-108 -2 c-16 -4 -39
-16 -51 -27 -11 -11 -24 -17 -28 -13 -4 4 -5 1 -3 -7 3 -15 -42 -45 -52 -34
-3 3 1 8 8 10 6 3 12 20 12 38 0 40 12 50 39 33 16 -10 26 -9 53 4 18 8 37 13
43 10 5 -3 -4 -9 -21 -14z m236 2 c-20 -13 -33 -13 -25 0 3 6 14 10 23 10 15
0 15 -2 2 -10z m-395 -40 c-10 -11 -24 -20 -32 -20 -12 0 -17 -12 -14 -32 0
-5 -2 -7 -6 -7 -19 3 -23 -2 -11 -15 7 -8 18 -11 23 -9 6 3 3 -1 -5 -10 -8 -9
-22 -17 -30 -19 -8 -2 -21 -9 -28 -15 -18 -18 -32 -16 -32 3 0 8 4 13 9 9 6
-3 15 4 21 15 6 11 15 18 20 15 4 -3 6 4 3 14 -6 23 56 91 83 91 16 0 16 -2
-1 -20z m377 -2 c-7 -7 -12 -8 -12 -2 0 14 12 26 19 19 2 -3 -1 -11 -7 -17z
m-362 -52 c0 -2 -7 -9 -15 -16 -13 -11 -14 -10 -9 4 5 14 24 23 24 12z m-187
-151 c-3 -9 -8 -14 -10 -11 -3 3 -2 9 2 15 9 16 15 13 8 -4z m198 -446 c-2
-48 2 -63 30 -107 18 -29 37 -52 43 -52 6 0 11 -10 12 -22 1 -13 4 -45 8 -73
7 -47 5 -52 -25 -82 -17 -19 -42 -33 -55 -33 -13 0 -29 -6 -35 -13 -7 -7 -28
-11 -52 -8 l-40 3 7 67 c4 45 16 86 38 131 29 57 33 77 36 158 3 79 6 93 20
90 13 -2 15 -14 13 -59z m161 -557 c15 -15 -29 -92 -79 -139 -25 -24 -48 -43
-52 -43 -18 0 -52 50 -58 84 -5 30 -1 40 19 60 13 14 36 28 51 31 15 4 30 11
33 16 6 11 73 4 86 -9z m-192 -171 c0 -4 -6 -15 -13 -26 -13 -16 -14 -15 -9
13 2 18 8 29 13 26 5 -3 9 -9 9 -13z m-160 -57 c0 -8 4 -13 8 -10 5 3 16 -4
26 -15 9 -12 24 -18 32 -15 8 3 14 -1 14 -9 0 -8 -19 -24 -41 -36 -23 -11 -44
-29 -46 -40 -6 -23 -13 -24 -38 -6 -14 11 -17 23 -13 59 3 24 13 56 23 71 18
27 35 28 35 1z m137 -206 c11 -35 11 -58 -2 -121 -5 -24 -3 -54 4 -79 16 -51
-2 -117 -26 -97 -22 19 -43 65 -43 94 0 21 4 25 19 20 36 -11 31 14 -9 46 -42
34 -53 75 -19 73 10 -1 22 16 35 47 10 27 21 49 24 49 3 0 11 -15 17 -32z m13
-340 c6 -13 15 -30 21 -39 9 -12 6 -21 -13 -42 -14 -15 -28 -24 -31 -20 -13
12 -4 123 9 123 3 0 9 -10 14 -22z m410 -119 c38 -41 38 -52 -1 -44 -17 4 -79
7 -137 7 -59 1 -102 3 -97 5 58 21 183 62 192 63 7 0 26 -14 43 -31z m1300
-53 c0 -2 -7 -7 -16 -10 -8 -3 -12 -2 -9 4 6 10 25 14 25 6z m-74 -120 c20
-21 17 -28 -6 -16 -11 6 -20 15 -20 20 0 14 9 12 26 -4z m-94 -54 c43 -40 52
-64 12 -33 -15 12 -32 21 -38 21 -6 1 -27 14 -46 31 l-35 29 35 -6 c19 -4 52
-23 72 -42z m735 -4 c-2 -7 3 -18 11 -24 11 -8 14 -34 13 -115 -2 -115 -8
-152 -24 -146 -20 6 -27 61 -21 167 6 109 9 130 20 130 3 0 4 -6 1 -12z
m-1267 -38 c0 -5 -4 -10 -10 -10 -5 0 -10 5 -10 10 0 6 5 10 10 10 6 0 10 -4
10 -10z m101 -63 c17 -22 17 -28 -17 -117 -9 -25 -17 -52 -18 -60 -1 -8 -14
-52 -29 -98 -15 -46 -27 -94 -27 -108 0 -31 -22 -104 -32 -105 -5 -1 -12 -3
-18 -4 -5 -1 -17 -3 -25 -4 -8 0 -15 -7 -15 -15 0 -7 -8 -20 -17 -27 -14 -12
-16 -12 -8 0 5 9 4 12 -3 7 -6 -3 -14 -20 -17 -38 -6 -23 -3 -33 9 -40 9 -5
16 -17 17 -26 0 -10 3 -12 6 -4 8 20 21 14 19 -11 -1 -20 -4 -21 -22 -13 -12
6 -19 17 -17 26 3 10 -2 17 -10 17 -8 0 -13 -6 -10 -12 6 -18 -25 -45 -53 -45
-13 0 -24 -4 -24 -10 0 -5 -5 -10 -11 -10 -8 0 -8 4 -2 13 6 6 10 19 10 28 0
24 24 79 34 79 5 0 9 9 9 19 0 11 4 22 10 26 5 3 7 12 3 20 -3 8 0 15 6 15 6
0 11 11 11 24 0 14 4 27 9 31 5 3 13 20 16 38 4 17 13 43 20 57 23 46 73 192
95 279 7 24 18 50 26 58 16 16 19 47 4 38 -5 -3 -10 1 -10 10 0 14 3 14 32 -1
17 -9 39 -26 49 -37z m1129 20 c0 -13 -4 -27 -9 -32 -6 -6 -11 -37 -13 -70
l-3 -60 -17 35 c-10 22 -13 39 -7 45 14 14 11 28 -6 21 -11 -4 -15 2 -15 24 0
22 7 33 28 44 37 21 42 20 42 -7z m-540 -67 c60 -60 69 -73 60 -90 -13 -25
-13 -30 4 -30 15 0 23 -18 56 -119 17 -52 19 -66 8 -72 -21 -13 -29 -11 -35
11 -3 11 -12 20 -19 20 -8 0 -14 5 -14 10 0 6 -4 10 -10 10 -5 0 -7 -8 -3 -17
5 -15 3 -15 -14 2 -22 21 -57 104 -49 113 3 2 10 -7 15 -21 12 -30 29 -43 42
-30 5 5 3 17 -7 29 -8 10 -13 13 -9 7 3 -7 1 -13 -4 -13 -17 0 -13 30 4 36 23
9 18 42 -11 69 -18 16 -25 31 -21 45 3 13 -7 34 -35 65 -59 67 -39 55 42 -25z
m60 0 c0 -5 -2 -10 -4 -10 -3 0 -8 5 -11 10 -3 6 -1 10 4 10 6 0 11 -4 11 -10z
m91 -15 c13 4 22 -2 33 -24 17 -32 21 -62 9 -60 -5 1 -17 1 -27 0 -28 -2 -10
-15 21 -16 21 0 32 -10 53 -45 39 -67 53 -112 38 -122 -20 -12 -26 -10 -44 20
-38 62 -66 99 -101 137 -57 61 -73 88 -62 108 8 13 15 14 36 6 14 -5 34 -7 44
-4z m-183 -80 c-3 -3 -9 2 -12 12 -6 14 -5 15 5 6 7 -7 10 -15 7 -18z m2 -186
c0 -5 -4 -8 -9 -4 -5 3 -12 1 -16 -5 -4 -6 -11 -7 -18 -3 -7 4 -4 9 9 14 27
11 34 10 34 -2z m110 -13 c0 -3 -4 -8 -10 -11 -5 -3 -10 -1 -10 4 0 6 5 11 10
11 6 0 10 -2 10 -4z m-1043 -488 c-3 -8 -6 -5 -6 6 -1 11 2 17 5 13 3 -3 4
-12 1 -19z m1492 -70 c6 -17 11 -32 11 -34 0 -6 -58 -34 -69 -34 -10 0 -45 70
-39 75 15 11 42 21 62 23 19 1 27 -5 35 -30z m-123 -71 c9 -24 9 -39 3 -43
-16 -9 -27 6 -35 50 -9 51 14 46 32 -7z m-3048 -113 c15 -15 14 -16 -6 -10
-14 5 -22 3 -22 -4 0 -15 -25 -40 -40 -40 -6 0 -15 -10 -20 -22 -7 -18 -9 -19
-9 -5 -2 38 42 96 72 97 5 0 16 -7 25 -16z m435 -120 c20 -27 20 -75 0 -82 -9
-2 -13 7 -13 29 0 18 -3 29 -7 26 -3 -4 -15 0 -25 9 -14 14 -20 14 -33 4 -22
-18 -27 -8 -9 18 21 30 64 28 87 -4z m247 -246 c0 -5 -9 -4 -20 2 -11 6 -20
12 -20 14 0 2 9 2 20 -1 11 -3 20 -9 20 -15z m835 -98 c3 -5 -1 -10 -10 -10
-9 0 -13 5 -10 10 3 6 8 10 10 10 2 0 7 -4 10 -10z m-1658 -57 c26 -9 17 -33
-13 -37 -25 -4 -31 -44 -8 -53 10 -3 26 -15 36 -25 10 -10 25 -15 35 -12 15 5
16 4 3 -5 -13 -9 -9 -14 10 -13 3 0 39 -17 80 -37 63 -32 76 -43 78 -65 7 -60
-5 -61 -63 -7 -31 30 -83 65 -120 82 -35 16 -69 38 -75 48 -17 33 -9 171 9
142 4 -5 16 -14 28 -18z m1459 -88 c-6 -19 -14 -35 -18 -35 -11 0 -10 7 7 40
21 40 24 38 11 -5z m-526 -215 c0 -15 -7 -20 -25 -20 -23 0 -24 2 -15 20 6 11
17 20 25 20 8 0 15 -9 15 -20z"/>
<path d="M1270 730 c0 -5 5 -10 10 -10 6 0 10 5 10 10 0 6 -4 10 -10 10 -5 0
-10 -4 -10 -10z"/>
<path d="M2940 2214 c0 -3 10 -14 22 -24 22 -18 48 -17 48 2 0 5 -4 6 -10 3
-5 -3 -10 -1 -10 5 0 7 -7 10 -15 6 -8 -3 -15 -1 -15 4 0 6 -4 10 -10 10 -5 0
-10 -3 -10 -6z"/>
<path d="M2450 2139 c67 -11 129 -11 110 1 -8 5 -46 9 -85 9 -67 -1 -68 -2
-25 -10z"/>
<path d="M2356 2067 c-10 -7 -17 -21 -15 -30 4 -16 6 -16 27 -2 12 9 22 23 22
31 0 18 -11 18 -34 1z"/>
<path d="M2295 2059 c-4 -5 -18 -14 -31 -19 -29 -12 -40 -34 -28 -60 8 -18 12
-17 52 16 23 20 42 44 42 55 0 20 -24 26 -35 8z"/>
<path d="M2472 1900 c-7 -11 -19 -20 -27 -20 -9 0 -26 -23 -39 -52 -13 -29
-33 -63 -44 -76 -11 -12 -23 -41 -26 -65 -8 -45 -32 -91 -45 -83 -4 3 -17 -3
-29 -14 -11 -11 -22 -15 -24 -9 -7 20 -38 -17 -43 -53 -6 -34 -4 -38 19 -44
22 -5 23 -9 14 -34 -7 -20 -19 -31 -40 -35 -20 -5 -34 -17 -44 -38 l-15 -32 5
34 6 34 -41 -6 c-22 -3 -43 -8 -46 -11 -8 -7 -32 -179 -27 -187 2 -4 -2 -10
-8 -12 -10 -4 -10 -6 -1 -6 9 -1 7 -16 -8 -53 -11 -28 -19 -63 -17 -77 3 -22
8 -16 36 41 17 37 32 73 32 79 0 7 3 10 6 6 3 -3 -3 -36 -14 -74 -12 -37 -27
-94 -34 -125 -7 -31 -15 -52 -19 -47 -3 6 -11 -8 -17 -32 -7 -29 -7 -47 0 -58
8 -13 5 -29 -11 -64 -12 -26 -19 -52 -16 -57 3 -6 -2 -10 -13 -10 -27 0 -59
-37 -45 -51 12 -12 -2 -59 -17 -59 -18 0 -60 -243 -44 -260 3 -3 14 6 25 20
10 14 23 30 28 36 4 5 13 20 20 31 6 12 17 27 23 35 39 41 80 111 75 129 -3
12 -1 17 6 12 6 -4 8 0 4 10 -5 13 -1 17 18 17 32 0 41 17 19 41 -10 11 -12
19 -6 19 7 0 12 10 13 23 0 21 1 21 9 2 8 -18 9 -17 9 6 1 15 8 32 17 40 9 7
13 21 10 33 -4 18 -1 21 31 21 39 0 48 10 94 105 31 64 129 356 136 405 5 38
3 43 -18 48 -23 6 -23 7 15 43 45 42 67 111 61 192 -2 35 2 52 17 68 19 22 51
132 42 146 -3 5 0 8 5 8 6 0 11 5 11 10 0 6 -9 10 -20 10 -25 0 -26 18 -1 22
13 2 16 8 12 20 -6 17 -7 16 -19 -2z m-451 -1189 c-3 -11 -6 -11 -9 -3 -2 7
-9 9 -15 6 -8 -5 -8 -2 1 7 6 7 12 22 13 34 1 17 2 16 8 -5 4 -14 5 -32 2 -39z"/>
<path d="M2362 1877 c-13 -14 -36 -27 -52 -31 -32 -6 -53 -38 -64 -98 -6 -33
-4 -38 12 -38 21 0 75 48 67 60 -2 4 6 12 18 17 30 14 55 62 48 91 l-6 24 -23
-25z"/>
<path d="M2207 1746 c-5 -21 -6 -40 -3 -43 9 -10 18 24 14 54 -3 26 -4 25 -11
-11z"/>
<path d="M2159 1623 c-8 -16 -16 -30 -19 -33 -14 -14 -51 -101 -46 -109 4 -5
14 -8 24 -6 9 2 22 4 28 4 7 1 15 9 19 18 7 19 17 153 12 153 -2 0 -10 -12
-18 -27z"/>
<path d="M2280 610 c-1 -3 -4 -21 -6 -40 -3 -32 -3 -33 7 -11 5 14 8 32 6 40
-3 9 -6 14 -7 11z"/>
<path d="M1756 51 c-4 -7 -5 -15 -2 -18 9 -9 19 4 14 18 -4 11 -6 11 -12 0z"/>
</g>
</svg>
