<?xml version="1.0" encoding="UTF-8"?>
<svg version="1.1" xmlns="http://www.w3.org/2000/svg" width="500" height="111">
<path d="M0 0 C2.475 0.495 2.475 0.495 5 1 C5 3.97 5 6.94 5 10 C-2.34060011 11.16532027 -9.57992061 11.1134298 -17 11.0625 C-18.25167969 11.05798828 -19.50335938 11.05347656 -20.79296875 11.04882812 C-23.86202941 11.03711415 -26.93098907 11.02071073 -30 11 C-30.66 12.65 -31.32 14.3 -32 16 C-30.18296421 18.24910321 -30.18296421 18.24910321 -27.57324219 18.1953125 C-26.07519043 18.16050781 -26.07519043 18.16050781 -24.546875 18.125 C-23.45246094 18.10953125 -22.35804687 18.0940625 -21.23046875 18.078125 C-18.92577335 18.02639222 -16.62108569 17.97431367 -14.31640625 17.921875 C-13.21683594 17.90640625 -12.11726563 17.8909375 -10.984375 17.875 C-9.98116211 17.85179688 -8.97794922 17.82859375 -7.94433594 17.8046875 C-2.17548691 18.18736405 1.76439862 20.12745017 6 24 C7.33827901 26.67655801 7.20578556 28.82434052 7.25 31.8125 C7.27578125 32.85019531 7.3015625 33.88789062 7.328125 34.95703125 C6.93684147 38.58572018 6.39098186 40.22777891 4 43 C-2.85405256 46.61874803 -9.74685958 46.54112669 -17.375 46.6875 C-18.54289062 46.72166016 -19.71078125 46.75582031 -20.9140625 46.79101562 C-24.27605446 46.88335733 -27.63715561 46.94849146 -31 47 C-31.99290039 47.01756348 -32.98580078 47.03512695 -34.00878906 47.05322266 C-35.35408691 47.06748291 -35.35408691 47.06748291 -36.7265625 47.08203125 C-37.50854004 47.09081299 -38.29051758 47.09959473 -39.09619141 47.10864258 C-41 47 -41 47 -43 46 C-43.02689216 44.52093108 -43.04634621 43.04172517 -43.0625 41.5625 C-43.07990234 40.32693359 -43.07990234 40.32693359 -43.09765625 39.06640625 C-43 37 -43 37 -42 36 C-39.3570834 35.92378584 -36.74005484 35.90924364 -34.09765625 35.9375 C-32.90830727 35.94317993 -32.90830727 35.94317993 -31.69493103 35.94897461 C-28.28882689 35.96539128 -24.88284056 35.99349366 -21.47680664 36.02050781 C-18.99626209 36.03853606 -16.51573682 36.05066786 -14.03515625 36.0625 C-13.26115982 36.07079834 -12.48716339 36.07909668 -11.68971252 36.08764648 C-7.71601418 36.19603513 -7.71601418 36.19603513 -4 35 C-3.957279 33.33388095 -3.95936168 31.66617115 -4 30 C-5.85872279 28.14127721 -8.9627248 28.82505318 -11.44921875 28.7890625 C-12.78581906 28.76097105 -14.12240742 28.73230646 -15.45898438 28.703125 C-17.5676206 28.66202384 -19.67603931 28.62514408 -21.78491211 28.59863281 C-23.81931963 28.57083316 -25.85270987 28.52494102 -27.88671875 28.4765625 C-29.10576904 28.45674316 -30.32481934 28.43692383 -31.58081055 28.41650391 C-35.35331301 27.95696166 -37.778171 26.99255114 -41 25 C-44.29365178 20.05952233 -44.27212144 15.04091083 -43.5 9.25 C-41.5600745 5.04682809 -39.16992419 2.85134055 -35 1 C-30.68934458 0.37390412 -26.47060828 0.48260154 -22.125 0.625 C-20.42537109 0.64626953 -20.42537109 0.64626953 -18.69140625 0.66796875 C-12.40104863 0.77730289 -6.23810773 1.1920922 0 2 C0 1.34 0 0.68 0 0 Z " fill="#570BF3" transform="translate(64,3)"/>
<path d="M0 0 C0.9029631 0.00424484 1.80592621 0.00848969 2.73625183 0.01286316 C5.60963225 0.02960564 8.48230166 0.06724959 11.35546875 0.10546875 C13.30793255 0.12052132 15.26040739 0.13420872 17.21289062 0.14648438 C21.98985572 0.17949467 26.76629184 0.2312464 31.54296875 0.29296875 C31.54296875 2.93296875 31.54296875 5.57296875 31.54296875 8.29296875 C30.49318848 8.3180249 29.4434082 8.34308105 28.36181641 8.36889648 C24.47415551 8.46293142 20.58667494 8.56316155 16.69921875 8.6652832 C15.01534233 8.70864692 13.33142152 8.75032095 11.64746094 8.7902832 C9.22968151 8.84795109 6.8121258 8.91165525 4.39453125 8.9765625 C3.26164169 9.00163124 3.26164169 9.00163124 2.10586548 9.02720642 C-1.80442924 9.06851982 -1.80442924 9.06851982 -5.45703125 10.29296875 C-5.49975225 11.9590878 -5.49766957 13.6267976 -5.45703125 15.29296875 C-3.6299215 17.1200785 -0.71602142 16.44516073 1.73828125 16.46875 C3.64867187 16.50452148 3.64867187 16.50452148 5.59765625 16.54101562 C7.62510421 16.57594635 9.65197713 16.60536201 11.6796875 16.61889648 C25.81019749 16.73167683 25.81019749 16.73167683 31.54296875 21.29296875 C34.34882349 25.50175086 34.96427684 29.51935718 34.21484375 34.453125 C33.35042602 37.41763451 32.42876927 39.62027279 29.92663574 41.52044678 C24.5022121 44.30071002 20.05442713 44.83323801 14.01171875 44.68359375 C12.69693542 44.67510406 12.69693542 44.67510406 11.35559082 44.66644287 C8.58413687 44.64423511 5.8140251 44.59407035 3.04296875 44.54296875 C1.15236256 44.52288349 -0.73826411 44.50463629 -2.62890625 44.48828125 C-7.23879031 44.44442182 -11.84768405 44.37550527 -16.45703125 44.29296875 C-16.45703125 41.32296875 -16.45703125 38.35296875 -16.45703125 35.29296875 C-14.73818726 35.25538452 -14.73818726 35.25538452 -12.98461914 35.21704102 C-8.74849527 35.12313769 -4.51254197 35.022876 -0.27661133 34.9206543 C1.55961122 34.87724055 3.39587583 34.83557036 5.23217773 34.7956543 C7.86585186 34.73810706 10.49931296 34.67436877 13.1328125 34.609375 C13.95885483 34.59266251 14.78489716 34.57595001 15.63597107 34.55873108 C19.39773628 34.81489442 19.39773628 34.81489442 22.54296875 33.29296875 C22.70963542 30.79296875 22.70963542 30.79296875 22.54296875 28.29296875 C20.77634639 26.52634639 18.2158025 27.12116914 15.8203125 27.08203125 C14.64146484 27.05367187 13.46261719 27.0253125 12.24804688 26.99609375 C9.7638115 26.94458032 7.27941779 26.90014711 4.79492188 26.86328125 C-9.64863672 26.48710609 -9.64863672 26.48710609 -15.39453125 21.66796875 C-17.59867568 16.74105767 -18.24538779 11.53837177 -16.33203125 6.41796875 C-12.29339732 -0.3130878 -7.15922163 -0.12726751 0 0 Z " fill="#FAFAFA" transform="translate(149.45703125,59.70703125)"/>
<path d="M0 0 C5.85764178 0.05840953 8.68455954 2.88025172 12.625 6.8125 C15.06512133 9.30396758 17.44260409 11.8481359 19.8125 14.40625 C21.64449755 16.33813103 23.48353031 18.26293469 25.3269043 20.18395996 C26.46810603 21.37805605 27.60136849 22.57979971 28.72583008 23.78967285 C30.05013654 25.19849387 31.42681329 26.5577558 32.8125 27.90625 C33.4725 27.90625 34.1325 27.90625 34.8125 27.90625 C35.1425 19.32625 35.4725 10.74625 35.8125 1.90625 C39.4425 1.57625 43.0725 1.24625 46.8125 0.90625 C46.93292478 15.6114531 46.66098332 30.22445824 45.8125 44.90625 C44.0632786 44.98767927 42.31295458 45.04563541 40.5625 45.09375 C39.58796875 45.12855469 38.6134375 45.16335937 37.609375 45.19921875 C34.41543349 44.86465784 33.08369696 44.13959367 30.8125 41.90625 C30.8125 41.24625 30.8125 40.58625 30.8125 39.90625 C30.1525 39.90625 29.4925 39.90625 28.8125 39.90625 C28.8125 39.24625 28.8125 38.58625 28.8125 37.90625 C28.1525 37.90625 27.4925 37.90625 26.8125 37.90625 C25.19140625 36.2265625 25.19140625 36.2265625 23.375 34.03125 C21.22849116 31.44431278 19.64473438 29.79440626 16.8125 27.90625 C16.8125 27.24625 16.8125 26.58625 16.8125 25.90625 C15.4925 25.24625 14.1725 24.58625 12.8125 23.90625 C12.8125 23.24625 12.8125 22.58625 12.8125 21.90625 C12.1525 21.90625 11.4925 21.90625 10.8125 21.90625 C9.43939293 20.61391393 8.10215176 19.28187854 6.8125 17.90625 C6.82410156 19.01742188 6.83570313 20.12859375 6.84765625 21.2734375 C6.90488598 29.22926396 6.81669086 36.99824699 5.8125 44.90625 C2.1825 44.90625 -1.4475 44.90625 -5.1875 44.90625 C-5.21214513 38.8007029 -5.23033371 32.69518449 -5.24243164 26.58959961 C-5.24747288 24.51081844 -5.25430574 22.43204084 -5.26293945 20.35327148 C-5.27501422 17.37222414 -5.28073024 14.39122351 -5.28515625 11.41015625 C-5.29289818 10.00703941 -5.29289818 10.00703941 -5.30079651 8.57557678 C-5.30087204 7.71475998 -5.30094757 6.85394318 -5.30102539 5.96704102 C-5.303246 5.20537125 -5.30546661 4.44370148 -5.30775452 3.65895081 C-5.0812083 0.3570563 -2.93809773 0.40979993 0 0 Z " fill="#480DD5" transform="translate(252.1875,3.09375)"/>
<path d="M0 0 C0.89439285 -0.00570007 1.78878571 -0.01140015 2.71028137 -0.01727295 C4.60933239 -0.02674117 6.50839997 -0.03326413 8.4074707 -0.03710938 C11.30254255 -0.04677653 14.19689302 -0.07776639 17.09179688 -0.109375 C18.9361937 -0.1159087 20.78059561 -0.12115773 22.625 -0.125 C23.48772018 -0.1373468 24.35044037 -0.1496936 25.23930359 -0.16241455 C30.29763649 -0.14383756 33.76406559 0.39271421 38.14453125 3.203125 C41.49721798 6.8276512 42.93899172 9.45603897 43.51953125 14.390625 C43.0404062 19.26172966 41.21528762 22.44036719 38.14453125 26.203125 C33.52150966 29.28513939 29.21559669 29.33820814 23.75 29.51953125 C22.54794922 29.56142578 21.34589844 29.60332031 20.10742188 29.64648438 C18.23860352 29.70545898 18.23860352 29.70545898 16.33203125 29.765625 C15.06681641 29.80880859 13.80160156 29.85199219 12.49804688 29.89648438 C9.38033085 30.00236907 6.26244503 30.10323274 3.14453125 30.203125 C2.81453125 34.823125 2.48453125 39.443125 2.14453125 44.203125 C-6.3515625 44.30078125 -6.3515625 44.30078125 -8.85546875 44.203125 C-10.804108 42.25448575 -9.98465615 39.3050378 -9.99441528 36.71191406 C-9.99239105 35.80151367 -9.99036682 34.89111328 -9.98828125 33.953125 C-9.98923798 33.02467773 -9.9901947 32.09623047 -9.99118042 31.13964844 C-9.9918623 29.17252535 -9.99000747 27.20540004 -9.98583984 25.23828125 C-9.9804917 22.21609474 -9.98578457 19.19405685 -9.9921875 16.171875 C-9.99152672 14.26562467 -9.99024556 12.35937443 -9.98828125 10.453125 C-9.99030548 9.54272461 -9.99232971 8.63232422 -9.99441528 7.69433594 C-9.961545 -1.039709 -7.96955643 0.03880389 0 0 Z M3.14453125 10.203125 C1.62278206 12.87394539 1.62278206 12.87394539 2.14453125 19.203125 C11.38453125 19.203125 20.62453125 19.203125 30.14453125 19.203125 C31.51663545 14.49253938 31.51663545 14.49253938 30.14453125 11.203125 C27.48274904 9.8722339 25.45713729 10.09043507 22.48046875 10.10546875 C20.79824219 10.11030273 20.79824219 10.11030273 19.08203125 10.11523438 C17.31859375 10.12780273 17.31859375 10.12780273 15.51953125 10.140625 C14.33617187 10.14513672 13.1528125 10.14964844 11.93359375 10.15429688 C9.00385618 10.16611033 6.07421853 10.18258242 3.14453125 10.203125 Z " fill="#570BF8" transform="translate(142.85546875,3.796875)"/>
<path d="M0 0 C11 0 11 0 14.8190918 2.5703125 C15.97440258 3.72733812 17.10053852 4.91406935 18.19921875 6.125 C18.80514359 6.74648926 19.41106842 7.36797852 20.03535461 8.00830078 C21.94699591 9.9810647 23.81663864 11.98860106 25.6875 14 C26.983727 15.35145797 28.28253444 16.70044596 29.58398438 18.046875 C32.75900448 21.33319281 35.87437648 24.66373201 39 28 C39.33 18.76 39.66 9.52 40 0 C43.63 0 47.26 0 51 0 C51 14.19 51 28.38 51 43 C39 43 39 43 35.44921875 40.65625 C34.49551912 39.63409988 33.57478118 38.58030826 32.6875 37.5 C32.19024414 36.95118164 31.69298828 36.40236328 31.18066406 35.83691406 C29.75396329 34.25013989 28.37407346 32.63233432 27 31 C26.33097656 30.24203125 25.66195313 29.4840625 24.97265625 28.703125 C23.30429671 26.81156089 21.65185873 24.90599084 20 23 C17.36 20.36 14.72 17.72 12 15 C11.67 24.24 11.34 33.48 11 43 C7.37 43 3.74 43 0 43 C0 28.81 0 14.62 0 0 Z " fill="#FBFBFB" transform="translate(264,60)"/>
<path d="M0 0 C1.37478516 0.01740234 1.37478516 0.01740234 2.77734375 0.03515625 C3.69644531 0.04417969 4.61554688 0.05320313 5.5625 0.0625 C6.27277344 0.07410156 6.98304688 0.08570313 7.71484375 0.09765625 C9.11171145 2.89139165 8.79149813 5.15640076 8.7421875 8.27734375 C8.72994141 9.51613281 8.71769531 10.75492188 8.70507812 12.03125 C8.67002564 14.65109839 8.63098686 17.27089658 8.58789062 19.890625 C8.57693359 21.13199219 8.56597656 22.37335937 8.5546875 23.65234375 C8.52942993 25.36139893 8.52942993 25.36139893 8.50366211 27.10498047 C8.71114507 30.04524191 9.08457404 31.67099247 10.71484375 34.09765625 C14.34894173 35.91470524 18.58821923 35.36806343 22.58984375 35.41015625 C23.50121094 35.43916016 24.41257813 35.46816406 25.3515625 35.49804688 C26.23199219 35.50642578 27.11242187 35.51480469 28.01953125 35.5234375 C29.22585205 35.54531128 29.22585205 35.54531128 30.45654297 35.56762695 C33.68607868 34.89553439 34.79851723 33.76348537 36.71484375 31.09765625 C37.26559209 27.81145494 37.26559209 27.81145494 37.10546875 24.14453125 C37.09697906 23.15419891 37.09697906 23.15419891 37.08831787 22.14385986 C37.06600605 20.04437362 37.01582689 17.94662255 36.96484375 15.84765625 C36.94477169 14.42059765 36.92652214 12.99351217 36.91015625 11.56640625 C36.86616068 8.07626332 36.79717251 4.58712926 36.71484375 1.09765625 C40.46885719 0.2932248 43.86472264 -0.07734926 47.71484375 0.09765625 C50.4075552 2.7903677 48.9892766 10.53095511 49.01000977 14.40551758 C49.0270897 16.62711208 49.07093424 18.8471657 49.11523438 21.06835938 C49.19806892 28.60518517 49.13263657 34.67767109 44.71484375 41.09765625 C38.60099797 46.08526728 30.40266935 45.3073048 22.90234375 45.34765625 C21.48211914 45.37859375 21.48211914 45.37859375 20.03320312 45.41015625 C12.85018015 45.4497049 6.17548459 44.67095328 0.27734375 40.28515625 C-3.17331481 35.45423426 -3.53453057 30.5674114 -3.515625 24.765625 C-3.51516678 24.08840897 -3.51470856 23.41119293 -3.51423645 22.7134552 C-3.5112344 21.29405954 -3.5034101 19.87466656 -3.4909668 18.45532227 C-3.47256325 16.27413404 -3.4704584 14.09336761 -3.47070312 11.91210938 C-3.42890304 0.14653432 -3.42890304 0.14653432 0 0 Z " fill="#5B0CFA" transform="translate(192.28515625,3.90234375)"/>
<path d="M0 0 C3.3 0 6.6 0 10 0 C10 5.61 10 11.22 10 17 C19.57 17 29.14 17 39 17 C39 11.39 39 5.78 39 0 C42.63 0 46.26 0 50 0 C50 14.19 50 28.38 50 43 C46.37 43 42.74 43 39 43 C39 37.39 39 31.78 39 26 C29.43 26 19.86 26 10 26 C10 31.61 10 37.22 10 43 C6.7 43 3.4 43 0 43 C0 28.81 0 14.62 0 0 Z " fill="#FBFBFB" transform="translate(189,60)"/>
<path d="M0 0 C3.3 0 6.6 0 10 0 C10 5.61 10 11.22 10 17 C19.57 17 29.14 17 39 17 C39 11.39 39 5.78 39 0 C42.63 0 46.26 0 50 0 C50 14.19 50 28.38 50 43 C46.37 43 42.74 43 39 43 C39 37.39 39 31.78 39 26 C29.43 26 19.86 26 10 26 C10 31.61 10 37.22 10 43 C6.7 43 3.4 43 0 43 C0 28.81 0 14.62 0 0 Z " fill="#FAFAFA" transform="translate(23,60)"/>
<path d="M0 0 C-0.01571045 1.3929126 -0.01571045 1.3929126 -0.03173828 2.81396484 C-0.06579204 6.2542569 -0.09088493 9.69437027 -0.10986328 13.13476562 C-0.11993043 14.6247032 -0.13358518 16.11462097 -0.15087891 17.60449219 C-0.17509653 19.74419028 -0.18647564 21.88362753 -0.1953125 24.0234375 C-0.21102295 25.95582275 -0.21102295 25.95582275 -0.22705078 27.92724609 C-0.32837664 31.10700806 -0.32837664 31.10700806 2 33 C6.45661229 34.3102774 11.01922582 34.18357016 15.625 34.1875 C16.388125 34.19974609 17.15125 34.21199219 17.9375 34.22460938 C21.82006322 34.23482665 23.69678923 34.20214051 27 32 C27.33814748 29.52508886 27.48872339 27.28648312 27.51171875 24.8046875 C27.52966995 24.09724396 27.54762115 23.38980042 27.56611633 22.66091919 C27.62034442 20.39900697 27.65415316 18.13730716 27.6875 15.875 C27.72066226 14.34241827 27.7551509 12.80986462 27.79101562 11.27734375 C27.87607727 7.51838221 27.94282753 3.759485 28 0 C31.63 -0.33 35.26 -0.66 39 -1 C41.55093734 11.75468668 42.17492792 29.57511002 34.8125 40.8125 C28.78405762 44.76216915 20.91212259 44.30650236 14 44.25 C13.05382812 44.25773437 12.10765625 44.26546875 11.1328125 44.2734375 C4.16550799 44.25413749 -2.37321464 44.17967296 -7.9375 39.5625 C-11.36370475 35.30570016 -11.13464133 31.48789122 -11.09765625 26.26953125 C-11.0962413 25.51911057 -11.09482635 24.76868988 -11.09336853 23.99552917 C-11.0877756 21.6011454 -11.07522444 19.20685547 -11.0625 16.8125 C-11.05748408 15.18815239 -11.05292134 13.56380332 -11.04882812 11.93945312 C-11.03780848 7.95959931 -11.02054873 3.97981556 -11 0 C-6.98195309 -0.84098656 -3.98196457 -1.05404945 0 0 Z " fill="#590CF9" transform="translate(88,5)"/>
<path d="M0 0 C3.3 0 6.6 0 10 0 C10 5.61 10 11.22 10 17 C19.9 17 29.8 17 40 17 C40 11.39 40 5.78 40 0 C43.3 0 46.6 0 50 0 C50 14.19 50 28.38 50 43 C46.7 43 43.4 43 40 43 C40 37.39 40 31.78 40 26 C30.1 26 20.2 26 10 26 C10 31.61 10 37.22 10 43 C6.7 43 3.4 43 0 43 C0 28.81 0 14.62 0 0 Z " fill="#FCFCFC" transform="translate(380,60)"/>
<path d="M0 0 C17.82 0 35.64 0 54 0 C54 7.26 54 14.52 54 22 C50.37 22 46.74 22 43 22 C43 17.71 43 13.42 43 9 C39.04 9 35.08 9 31 9 C31 20.22 31 31.44 31 43 C27.7 43 24.4 43 21 43 C21 31.78 21 20.56 21 9 C17.7 9 14.4 9 11 9 C11 13.29 11 17.58 11 22 C7.37 22 3.74 22 0 22 C0 14.74 0 7.48 0 0 Z " fill="#FCFCFC" transform="translate(320,60)"/>
<path d="M0 0 C5.28 0 10.56 0 16 0 C17.74358802 3.73034707 19.48572724 7.46131253 21.22460938 11.19384766 C21.81335204 12.45657934 22.40283955 13.71896408 22.99316406 14.98095703 C35 40.65427688 35 40.65427688 35 43 C31.04 43 27.08 43 23 43 C22.01 40.03 21.02 37.06 20 34 C12.08 34 4.16 34 -4 34 C-4.66 35.98 -5.32 37.96 -6 40 C-6.66 40.99 -7.32 41.98 -8 43 C-10.6015625 43.29296875 -10.6015625 43.29296875 -13.625 43.1875 C-15.12933594 43.14689453 -15.12933594 43.14689453 -16.6640625 43.10546875 C-17.43492187 43.07066406 -18.20578125 43.03585938 -19 43 C-17.47519772 38.07854256 -15.49572187 33.49414578 -13.33984375 28.828125 C-12.9899086 28.06449646 -12.63997345 27.30086792 -12.2794342 26.51409912 C-11.16834359 24.09139493 -10.05294898 21.67070013 -8.9375 19.25 C-8.18396895 17.60819949 -7.43071093 15.96627364 -6.67773438 14.32421875 C-1.2595881 2.51917619 -1.2595881 2.51917619 0 0 Z M7 9 C5.82866942 11.45620851 4.66278278 13.91474917 3.5 16.375 C3.16613281 17.07367188 2.83226562 17.77234375 2.48828125 18.4921875 C0.64790602 22.08827999 0.64790602 22.08827999 0 26 C5.28 26 10.56 26 16 26 C15.21625 24.123125 14.4325 22.24625 13.625 20.3125 C12.05487001 16.55245187 10.50362259 12.78716158 9 9 C8.34 9 7.68 9 7 9 Z " fill="#FCFCFC" transform="translate(453,60)"/>
<path d="M0 0 C1.48831242 0.00667405 2.97660807 0.01863442 4.46484375 0.03515625 C5.22345703 0.03966797 5.98207031 0.04417969 6.76367188 0.04882812 C8.64326246 0.06064945 10.52281274 0.07858547 12.40234375 0.09765625 C15.11084767 6.05960784 17.81645791 12.02286616 20.52001953 17.98706055 C21.44089563 20.0176395 22.36244422 22.04791361 23.28466797 24.07788086 C24.60689615 26.98862914 25.92673529 29.90045005 27.24609375 32.8125 C27.86949646 34.18280617 27.86949646 34.18280617 28.50549316 35.58079529 C28.88588745 36.42159134 29.26628174 37.26238739 29.65820312 38.12866211 C29.99573608 38.87256699 30.33326904 39.61647186 30.68103027 40.38291931 C31.40234375 42.09765625 31.40234375 42.09765625 31.40234375 43.09765625 C27.44234375 43.09765625 23.48234375 43.09765625 19.40234375 43.09765625 C16.40234375 37.47265625 16.40234375 37.47265625 16.40234375 34.09765625 C8.48234375 34.42765625 0.56234375 34.75765625 -7.59765625 35.09765625 C-8.91765625 37.73765625 -10.23765625 40.37765625 -11.59765625 43.09765625 C-15.22765625 43.09765625 -18.85765625 43.09765625 -22.59765625 43.09765625 C-20.14330238 34.85402494 -16.59855733 27.17448014 -13.01757812 19.37451172 C-11.9634428 17.07758041 -10.91677461 14.77735329 -9.87109375 12.4765625 C-9.20485667 11.01673095 -8.53820533 9.55708838 -7.87109375 8.09765625 C-7.40079239 7.06499634 -7.40079239 7.06499634 -6.92098999 6.01147461 C-4.20792639 0.11422167 -4.20792639 0.11422167 0 0 Z M3.40234375 8.09765625 C2.23121429 10.72074724 1.06528411 13.34593767 -0.09765625 15.97265625 C-0.43152344 16.71902344 -0.76539063 17.46539062 -1.109375 18.234375 C-1.42519531 18.94980469 -1.74101563 19.66523437 -2.06640625 20.40234375 C-2.50629883 21.39210205 -2.50629883 21.39210205 -2.95507812 22.40185547 C-3.7157688 24.10711832 -3.7157688 24.10711832 -3.59765625 26.09765625 C1.35234375 26.09765625 6.30234375 26.09765625 11.40234375 26.09765625 C10.50023817 21.58712836 9.29164887 18.39640534 7.33984375 14.28515625 C6.79199219 13.12371094 6.24414062 11.96226563 5.6796875 10.765625 C5.04740234 9.44498047 5.04740234 9.44498047 4.40234375 8.09765625 C4.07234375 8.09765625 3.74234375 8.09765625 3.40234375 8.09765625 Z " fill="#FCFCFC" transform="translate(99.59765625,59.90234375)"/>
<path d="M0 0 C1.37478516 0.01740234 1.37478516 0.01740234 2.77734375 0.03515625 C3.69644531 0.04417969 4.61554688 0.05320313 5.5625 0.0625 C6.27277344 0.07410156 6.98304688 0.08570313 7.71484375 0.09765625 C9.11171145 2.89139165 8.79149813 5.15640076 8.7421875 8.27734375 C8.72994141 9.51613281 8.71769531 10.75492188 8.70507812 12.03125 C8.67002564 14.65109839 8.63098686 17.27089658 8.58789062 19.890625 C8.57693359 21.13199219 8.56597656 22.37335937 8.5546875 23.65234375 C8.52942993 25.36139893 8.52942993 25.36139893 8.50366211 27.10498047 C8.71114507 30.04524191 9.08457404 31.67099247 10.71484375 34.09765625 C14.33937804 35.90992339 18.59963007 35.28235806 22.58984375 35.28515625 C23.50121094 35.29740234 24.41257813 35.30964844 25.3515625 35.32226562 C26.23199219 35.32419922 27.11242187 35.32613281 28.01953125 35.328125 C28.82374512 35.33223389 29.62795898 35.33634277 30.45654297 35.34057617 C32.93885806 35.07355958 34.56664789 34.33832387 36.71484375 33.09765625 C36.71484375 34.08765625 36.71484375 35.07765625 36.71484375 36.09765625 C34.24533496 37.33241064 32.5717528 37.22333 29.8125 37.23828125 C28.83990234 37.25761719 27.86730469 37.27695312 26.86523438 37.296875 C24.81074381 37.33066169 22.75593858 37.34895327 20.70117188 37.3515625 C19.72728516 37.37605469 18.75339844 37.40054688 17.75 37.42578125 C16.85676025 37.43512695 15.96352051 37.44447266 15.04321289 37.45410156 C11.985282 38.01132178 11.985282 38.01132178 9.71484375 43.09765625 C18.95484375 43.09765625 28.19484375 43.09765625 37.71484375 43.09765625 C37.71484375 42.43765625 37.71484375 41.77765625 37.71484375 41.09765625 C40.02484375 40.43765625 42.33484375 39.77765625 44.71484375 39.09765625 C43.71484375 42.09765625 43.71484375 42.09765625 42.02734375 43.22265625 C35.88681253 45.5461005 29.37477179 45.31283485 22.90234375 45.34765625 C21.48211914 45.37859375 21.48211914 45.37859375 20.03320312 45.41015625 C12.85018015 45.4497049 6.17548459 44.67095328 0.27734375 40.28515625 C-3.17331481 35.45423426 -3.53453057 30.5674114 -3.515625 24.765625 C-3.51516678 24.08840897 -3.51470856 23.41119293 -3.51423645 22.7134552 C-3.5112344 21.29405954 -3.5034101 19.87466656 -3.4909668 18.45532227 C-3.47256325 16.27413404 -3.4704584 14.09336761 -3.47070312 11.91210938 C-3.42890304 0.14653432 -3.42890304 0.14653432 0 0 Z " fill="#5111DC" transform="translate(192.28515625,3.90234375)"/>
<path d="M0 0 C0.07468157 4.00178342 0.12885021 8.00329167 0.16479492 12.00561523 C0.17979409 13.36441117 0.20020038 14.72315941 0.22631836 16.08178711 C0.49277321 30.30838651 0.49277321 30.30838651 -3 36 C-3.99 36.495 -3.99 36.495 -5 37 C-5 37.99 -5 38.98 -5 40 C-8.81206312 41.7697771 -11.76775622 42.23827942 -15.95703125 42.1953125 C-17.06884766 42.18886719 -18.18066406 42.18242188 -19.32617188 42.17578125 C-20.47666016 42.15902344 -21.62714844 42.14226563 -22.8125 42.125 C-23.98232422 42.11597656 -25.15214844 42.10695312 -26.35742188 42.09765625 C-29.23849053 42.07413732 -32.11913989 42.04126852 -35 42 C-35.33 41.34 -35.66 40.68 -36 40 C-35.67 39.01 -35.34 38.02 -35 37 C-32.23434618 36.07811539 -30.61716298 35.88214778 -27.76953125 35.90234375 C-26.56586914 35.90717773 -26.56586914 35.90717773 -25.33789062 35.91210938 C-24.08782227 35.92467773 -24.08782227 35.92467773 -22.8125 35.9375 C-21.5450293 35.94426758 -21.5450293 35.94426758 -20.25195312 35.95117188 C-18.16793845 35.96294597 -16.08396023 35.9808811 -14 36 C-14 35.34 -14 34.68 -14 34 C-13.01 33.34 -12.02 32.68 -11 32 C-10.66185252 29.52508886 -10.51127661 27.28648312 -10.48828125 24.8046875 C-10.47033005 24.09724396 -10.45237885 23.38980042 -10.43388367 22.66091919 C-10.37965558 20.39900697 -10.34584684 18.13730716 -10.3125 15.875 C-10.27933774 14.34241827 -10.2448491 12.80986462 -10.20898438 11.27734375 C-10.12392273 7.51838221 -10.05717247 3.759485 -10 0 C-6.33694766 -0.74926071 -3.57644848 -1.2380014 0 0 Z " fill="#590DF5" transform="translate(126,5)"/>
<path d="M0 0 C3.63 0 7.26 0 11 0 C11 14.19 11 28.38 11 43 C7.37 43 3.74 43 0 43 C0 28.81 0 14.62 0 0 Z " fill="#FAFAFA" transform="translate(246,60)"/>
<path d="M0 0 C2.64 0 5.28 0 8 0 C8 13.53 8 27.06 8 41 C4.37 41 0.74 41 -3 41 C-3.391875 40.0925 -3.78375 39.185 -4.1875 38.25 C-6.09645957 34.82703801 -7.97227576 33.39030861 -11 31 C-11.36162029 29.67405895 -11.69728039 28.34061543 -12 27 C-13.97670607 25.24577228 -13.97670607 25.24577228 -16 24 C-15.67 22.68 -15.34 21.36 -15 20 C-11.88801935 21.49836105 -8.9465385 23.19933758 -6 25 C-7 27 -7 27 -9 30 C-8.34 30 -7.68 30 -7 30 C-7 29.34 -7 28.68 -7 28 C-5.35 28.33 -3.7 28.66 -2 29 C-0.94163339 25.82490018 -0.79756211 23.35717617 -0.68359375 20.01953125 C-0.64169922 18.85615234 -0.59980469 17.69277344 -0.55664062 16.49414062 C-0.51732422 15.27919922 -0.47800781 14.06425781 -0.4375 12.8125 C-0.39431641 11.58595703 -0.35113281 10.35941406 -0.30664062 9.09570312 C-0.2004691 6.06391619 -0.09842048 3.03204685 0 0 Z " fill="#5B0BFB" transform="translate(289,6)"/>
<path d="M0 0 C8 0 8 0 11 2 C11.28875 2.845625 11.5775 3.69125 11.875 4.5625 C12.431875 5.7690625 12.431875 5.7690625 13 7 C15.54775306 7.89386164 15.54775306 7.89386164 18 8 C17.67 9.32 17.34 10.64 17 12 C17.66 12 18.32 12 19 12 C21 14 21 14 22 17 C20.02 17.99 20.02 17.99 18 19 C17.01 18.34 16.02 17.68 15 17 C15 16.01 15 15.02 15 14 C14.071875 13.7834375 14.071875 13.7834375 13.125 13.5625 C11 13 11 13 9 12 C8.67 21.57 8.34 31.14 8 41 C5.36 41 2.72 41 0 41 C0 27.47 0 13.94 0 0 Z " fill="#5B0BFB" transform="translate(249,6)"/>
<path d="M0 0 C3.125 0.375 3.125 0.375 6 1 C6.08160748 2.89510699 6.13946459 4.79124504 6.1875 6.6875 C6.23970703 8.27111328 6.23970703 8.27111328 6.29296875 9.88671875 C5.96323813 13.39065615 5.08584712 15.19698511 3 18 C0.69179492 19.15410254 -0.60784276 19.1210297 -3.17431641 19.11352539 C-4.46542831 19.11341209 -4.46542831 19.11341209 -5.78262329 19.11329651 C-6.71287323 19.10813522 -7.64312317 19.10297394 -8.6015625 19.09765625 C-9.55316254 19.0962413 -10.50476257 19.09482635 -11.48519897 19.09336853 C-14.53183097 19.08776012 -17.57839013 19.07520619 -20.625 19.0625 C-22.68749894 19.05748608 -24.74999903 19.05292299 -26.8125 19.04882812 C-31.87502817 19.03778796 -36.93750173 19.02051767 -42 19 C-42.042721 17.33388095 -42.04063832 15.66617115 -42 14 C-41 13 -41 13 -38.82275391 12.9465332 C-35.75629349 13.05884909 -32.69059143 13.17833443 -29.625 13.3125 C-28.55765625 13.34794922 -27.4903125 13.38339844 -26.390625 13.41992188 C-25.36710937 13.46310547 -24.34359375 13.50628906 -23.2890625 13.55078125 C-21.87681396 13.60745972 -21.87681396 13.60745972 -20.43603516 13.6652832 C-18 14 -18 14 -15 16 C-15 15.34 -15 14.68 -15 14 C-12.03 14 -9.06 14 -6 14 C-6 13.34 -6 12.68 -6 12 C-5.34 11.67 -4.68 11.34 -4 11 C-3.38634292 8.94623994 -3.38634292 8.94623994 -3 6.5625 C-2.21917808 2.21917808 -2.21917808 2.21917808 0 0 Z " fill="#5A0CF5" transform="translate(65,28)"/>
<path d="M0 0 C2.64 0 5.28 0 8 0 C8 11.88 8 23.76 8 36 C5.525 36.495 5.525 36.495 3 37 C0.56423695 31.99081255 -0.36594164 28.42146715 -0.29296875 22.75390625 C-0.28872391 22.09792953 -0.28447906 21.44195282 -0.28010559 20.76609802 C-0.26348779 18.69779089 -0.22587238 16.63050599 -0.1875 14.5625 C-0.17243111 13.14910275 -0.15874659 11.73569002 -0.14648438 10.32226562 C-0.11364104 6.88118565 -0.06198015 3.44069281 0 0 Z " fill="#5B0BFB" transform="translate(191,6)"/>
<path d="M0 0 C0.99 0 1.98 0 3 0 C5.71771368 11.58263689 6.08174232 29.47390753 0 40 C-2.11870898 43.23381896 -4.94231648 43.70279595 -8.5949707 44.57885742 C-13.04766524 45.35856487 -17.49186784 45.28685122 -22 45.25 C-22.94617188 45.25773437 -23.89234375 45.26546875 -24.8671875 45.2734375 C-31.83449201 45.25413749 -38.37321464 45.17967296 -43.9375 40.5625 C-47.36370475 36.30570016 -47.13464133 32.48789122 -47.09765625 27.26953125 C-47.0962413 26.51911057 -47.09482635 25.76868988 -47.09336853 24.99552917 C-47.0877756 22.6011454 -47.07522444 20.20685547 -47.0625 17.8125 C-47.05748408 16.18815239 -47.05292134 14.56380332 -47.04882812 12.93945312 C-47.03780848 8.95959931 -47.02054873 4.97981556 -47 1 C-45.02 1 -43.04 1 -41 1 C-42.32 1.33 -43.64 1.66 -45 2 C-44.88174635 6.92977019 -44.75749758 11.85933896 -44.62768555 16.78881836 C-44.58436833 18.46585987 -44.54269093 20.14294458 -44.50268555 21.82006836 C-44.44490515 24.23043841 -44.3812332 26.6405917 -44.31640625 29.05078125 C-44.29969376 29.80087967 -44.28298126 30.55097809 -44.26576233 31.32380676 C-44.17655767 34.45677992 -43.99763547 37.0070936 -43 40 C-38.69940515 41.91071274 -34.91310458 42.24711916 -30.24609375 42.23046875 C-28.97958984 42.22853516 -27.71308594 42.22660156 -26.40820312 42.22460938 C-25.09787109 42.21236328 -23.78753906 42.20011719 -22.4375 42.1875 C-21.12330078 42.18685547 -19.80910156 42.18621094 -18.45507812 42.18554688 C-10.66823187 42.18675712 -10.66823187 42.18675712 -3 41 C-3.495 39.02 -3.495 39.02 -4 37 C-3.01 37 -2.02 37 -1 37 C-0.855625 36.401875 -0.71125 35.80375 -0.5625 35.1875 C-0.1127561 33.43849596 0.42892341 31.71322977 1 30 C1.15109093 27.79040747 1.24873801 25.57699953 1.31640625 23.36328125 C1.37924805 21.41518555 1.37924805 21.41518555 1.44335938 19.42773438 C1.48316987 18.05599239 1.52288216 16.68424756 1.5625 15.3125 C1.60570835 13.92902355 1.64932339 12.54555973 1.69335938 11.16210938 C1.79958028 7.77484281 1.90162358 4.38750201 2 1 C1.34 0.67 0.68 0.34 0 0 Z " fill="#4513C4" transform="translate(124,4)"/>
<path d="M0 0 C0.33 0 0.66 0 1 0 C1 14.19 1 28.38 1 43 C3.64 43 6.28 43 9 43 C8.96519531 42.01257812 8.93039063 41.02515625 8.89453125 40.0078125 C8.85392578 38.08582031 8.85392578 38.08582031 8.8125 36.125 C8.77769531 34.84882812 8.74289063 33.57265625 8.70703125 32.2578125 C8.80371094 31.18273437 8.90039062 30.10765625 9 29 C12 27 12 27 15.5625 27.0625 C16.696875 27.041875 17.83125 27.02125 19 27 C19.66 26.01 20.32 25.02 21 24 C21.66 24 22.32 24 23 24 C23 24.99 23 25.98 23 27 C26.10579494 26.97720599 29.20790484 26.89992181 32.3125 26.8125 C33.19357422 26.80669922 34.07464844 26.80089844 34.98242188 26.79492188 C37.42331369 26.71139326 39.62923627 26.59169242 42 26 C44.1929957 23.63186061 44.1929957 23.63186061 45 21 C46.32 21.33 47.64 21.66 49 22 C47.63016497 25.16115776 47.0109362 25.9927092 44 28 C40.2105587 29.00245705 36.51298454 29.18677302 32.60546875 29.31640625 C31.40341797 29.35830078 30.20136719 29.40019531 28.96289062 29.44335938 C27.09407227 29.50233398 27.09407227 29.50233398 25.1875 29.5625 C23.92228516 29.60568359 22.65707031 29.64886719 21.35351562 29.69335938 C18.2357996 29.79924407 15.11791378 29.90010774 12 30 C11.67 34.62 11.34 39.24 11 44 C2.50390625 44.09765625 2.50390625 44.09765625 0 44 C-1.94863925 42.05136075 -1.1291874 39.1019128 -1.13894653 36.50878906 C-1.1369223 35.59838867 -1.13489807 34.68798828 -1.1328125 33.75 C-1.13376923 32.82155273 -1.13472595 31.89310547 -1.13571167 30.93652344 C-1.13639355 28.96940035 -1.13453872 27.00227504 -1.13037109 25.03515625 C-1.12502295 22.01296974 -1.13031582 18.99093185 -1.13671875 15.96875 C-1.13605797 14.06249967 -1.13477681 12.15624943 -1.1328125 10.25 C-1.13483673 9.33959961 -1.13686096 8.42919922 -1.13894653 7.49121094 C-1.11494969 1.11494969 -1.11494969 1.11494969 0 0 Z " fill="#4210BF" transform="translate(134,4)"/>
<path d="M0 0 C0.99 0.66 1.98 1.32 3 2 C3.1875 4.625 3.1875 4.625 3 7 C1.35 7 -0.3 7 -2 7 C-2 7.66 -2 8.32 -2 9 C-11.24 9 -20.48 9 -30 9 C-29 5 -29 5 -27 3 C-24.50976562 2.71289062 -24.50976562 2.71289062 -21.40625 2.65625 C-19.73755859 2.61177734 -19.73755859 2.61177734 -18.03515625 2.56640625 C-14.5 2.5 -14.5 2.5 -10.96484375 2.43359375 C-9.29615234 2.38912109 -9.29615234 2.38912109 -7.59375 2.34375 C-6.56958984 2.32505859 -5.54542969 2.30636719 -4.49023438 2.28710938 C-1.82711876 2.24142855 -1.82711876 2.24142855 0 0 Z " fill="#5B0BFC" transform="translate(232,38)"/>
<path d="M0 0 C5.31691823 1.2063596 8.44484559 5.56159191 11.7890625 9.6328125 C9.9765625 10.2578125 9.9765625 10.2578125 7.7890625 10.6328125 C4.7890625 8.6328125 4.7890625 8.6328125 3.7890625 4.6328125 C0.4890625 3.9728125 -2.8109375 3.3128125 -6.2109375 2.6328125 C-6.2109375 16.1628125 -6.2109375 29.6928125 -6.2109375 43.6328125 C-3.5709375 43.6328125 -0.9309375 43.6328125 1.7890625 43.6328125 C1.7890625 34.7228125 1.7890625 25.8128125 1.7890625 16.6328125 C2.7790625 16.9628125 3.7690625 17.2928125 4.7890625 17.6328125 C4.1290625 26.5428125 3.4690625 35.4528125 2.7890625 44.6328125 C-0.8409375 44.6328125 -4.4709375 44.6328125 -8.2109375 44.6328125 C-8.23558263 38.5272654 -8.25377121 32.42174699 -8.26586914 26.31616211 C-8.27091038 24.23738094 -8.27774324 22.15860334 -8.28637695 20.07983398 C-8.29845172 17.09878664 -8.30416774 14.11778601 -8.30859375 11.13671875 C-8.31633568 9.73360191 -8.31633568 9.73360191 -8.32423401 8.30213928 C-8.32430954 7.44132248 -8.32438507 6.58050568 -8.32446289 5.69360352 C-8.3266835 4.93193375 -8.32890411 4.17026398 -8.33119202 3.38551331 C-8.04001146 -0.85842199 -3.34252665 0.00963264 0 0 Z " fill="#4010D3" transform="translate(255.2109375,3.3671875)"/>
<path d="M0 0 C5 1 5 1 6 2 C6.25299591 5.95183868 6.18522734 9.91602259 6.1875 13.875 C6.19974609 14.99003906 6.21199219 16.10507812 6.22460938 17.25390625 C6.22654297 18.32253906 6.22847656 19.39117188 6.23046875 20.4921875 C6.23457764 21.47558105 6.23868652 22.45897461 6.24291992 23.47216797 C6 26 6 26 4 29 C3.67 28.67 3.34 28.34 3 28 C2.67 28.66 2.34 29.32 2 30 C1.34 30 0.68 30 0 30 C0 20.1 0 10.2 0 0 Z " fill="#5C0AFC" transform="translate(79,6)"/>
<path d="M0 0 C1.39120471 0.00015906 2.78241534 0.00585033 4.17358398 0.01586914 C4.90463852 0.01728409 5.63569305 0.01869904 6.38890076 0.02015686 C8.73253406 0.02577131 11.07607313 0.03832617 13.41967773 0.05102539 C15.00496282 0.05603853 16.59024939 0.06060176 18.17553711 0.06469727 C22.06945383 0.07574542 25.96329979 0.09301967 29.85717773 0.11352539 C29.85717773 0.44352539 29.85717773 0.77352539 29.85717773 1.11352539 C23.39912691 2.21611943 16.95959581 2.43926871 10.41967773 2.67602539 C9.30657227 2.71920898 8.1934668 2.76239258 7.04663086 2.80688477 C4.31691929 2.91232427 1.5871263 3.01444568 -1.14282227 3.11352539 C-1.47282227 4.76352539 -1.80282227 6.41352539 -2.14282227 8.11352539 C11.38717773 8.11352539 24.91717773 8.11352539 38.85717773 8.11352539 C34.90578298 10.08922277 33.18551421 10.39927972 28.91186523 10.52758789 C27.75170898 10.56625977 26.59155273 10.60493164 25.39624023 10.64477539 C23.5825293 10.69118164 23.5825293 10.69118164 21.73217773 10.73852539 C20.54624023 10.77719727 19.36030273 10.81586914 18.13842773 10.85571289 C12.79833442 11.02074889 7.45739242 11.14375284 2.11499023 11.19946289 C1.33526855 11.20768066 0.55554688 11.21589844 -0.24780273 11.22436523 C-2.14282227 11.11352539 -2.14282227 11.11352539 -4.14282227 10.11352539 C-4.16971443 8.63445647 -4.18916848 7.15525056 -4.20532227 5.67602539 C-4.21692383 4.85231445 -4.22852539 4.02860352 -4.24047852 3.17993164 C-4.07978664 -0.22030842 -3.47992892 0.1257024 0 0 Z " fill="#4E1DC8" transform="translate(25.142822265625,38.886474609375)"/>
<path d="M0 0 C2.475 0.495 2.475 0.495 5 1 C5 3.97 5 6.94 5 10 C-2.34060011 11.16532027 -9.57992061 11.1134298 -17 11.0625 C-18.25167969 11.05798828 -19.50335938 11.05347656 -20.79296875 11.04882812 C-23.86202941 11.03711415 -26.93098907 11.02071073 -30 11 C-30.66 12.65 -31.32 14.3 -32 16 C-30.177429 18.25541913 -30.177429 18.25541913 -27.52563477 18.1953125 C-26.50783936 18.17210938 -25.49004395 18.14890625 -24.44140625 18.125 C-23.33345703 18.10953125 -22.22550781 18.0940625 -21.08398438 18.078125 C-18.74023245 18.02612829 -16.39648244 17.97404524 -14.05273438 17.921875 C-12.38887695 17.89867187 -12.38887695 17.89867187 -10.69140625 17.875 C-9.67248291 17.85179688 -8.65355957 17.82859375 -7.60375977 17.8046875 C-5 18 -5 18 -2 20 C-12.56 20 -23.12 20 -34 20 C-34 12 -34 12 -32 9 C-29.23371085 8.7332384 -26.69380369 8.65195811 -23.9296875 8.70703125 C-22.73534592 8.71339851 -22.73534592 8.71339851 -21.51687622 8.71989441 C-18.96924271 8.73671166 -16.42239511 8.77436821 -13.875 8.8125 C-12.14975099 8.82754295 -10.42448961 8.84123204 -8.69921875 8.85351562 C-4.46584218 8.88662499 -0.23305441 8.93842715 4 9 C3.34 7.35 2.68 5.7 2 4 C-1.3 3.67 -4.6 3.34 -8 3 C-8 2.67 -8 2.34 -8 2 C-5.36 2 -2.72 2 0 2 C0 1.34 0 0.68 0 0 Z " fill="#2F06E0" transform="translate(64,3)"/>
<path d="M0 0 C0.9075 0.00257812 1.815 0.00515625 2.75 0.0078125 C4.11125 0.00394531 4.11125 0.00394531 5.5 0 C7.75 0.1328125 7.75 0.1328125 8.75 1.1328125 C8.96935845 5.62025966 8.93578933 10.11319693 8.93530273 14.60546875 C8.93747758 16.85957035 8.95559545 19.11317336 8.97460938 21.3671875 C8.97754562 22.80468583 8.97952887 24.24218648 8.98046875 25.6796875 C8.98457764 26.98776367 8.98868652 28.29583984 8.99291992 29.64355469 C8.76302255 32.94575897 8.18199314 35.17730919 6.75 38.1328125 C5.50189665 34.35068115 5.71498283 30.66481956 5.87109375 26.7421875 C5.89470474 26.03757385 5.91831573 25.33296021 5.94264221 24.60699463 C6.01896977 22.3653797 6.10312579 20.12413754 6.1875 17.8828125 C6.2407517 16.359393 6.29349188 14.83595552 6.34570312 13.3125 C6.47454248 9.58571095 6.61040232 5.85921583 6.75 2.1328125 C4.44 2.4628125 2.13 2.7928125 -0.25 3.1328125 C-0.58 12.7028125 -0.91 22.2728125 -1.25 32.1328125 C-2.24 32.6278125 -2.24 32.6278125 -3.25 33.1328125 C-3.27465392 28.59383545 -3.29283789 24.05489707 -3.30493164 19.51586914 C-3.3099714 17.97061484 -3.3168032 16.42536534 -3.32543945 14.88012695 C-3.33752076 12.66356221 -3.34323173 10.44706032 -3.34765625 8.23046875 C-3.35281754 7.5356691 -3.35797882 6.84086945 -3.36329651 6.12501526 C-3.36349277 4.4605192 -3.31189129 2.79615751 -3.25 1.1328125 C-2.25 0.1328125 -2.25 0.1328125 0 0 Z " fill="#360BD1" transform="translate(232.25,3.8671875)"/>
<path d="M0 0 C3.93260944 -0.07421454 7.86494722 -0.12863136 11.7980957 -0.16479492 C13.79327701 -0.18728333 15.78826213 -0.22540198 17.78320312 -0.26367188 C19.03681641 -0.27333984 20.29042969 -0.28300781 21.58203125 -0.29296875 C22.73936768 -0.3086792 23.8967041 -0.32438965 25.08911133 -0.34057617 C28 0 28 0 29.8581543 1.3503418 C31.3416245 3.493555 31.6542042 5.4411111 32 8 C31.01 8.33 30.02 8.66 29 9 C29 6.69 29 4.38 29 2 C20.09 1.67 11.18 1.34 2 1 C1.67 3.97 1.34 6.94 1 10 C1.68102783 9.98952637 2.36205566 9.97905273 3.0637207 9.96826172 C6.14660966 9.92671122 9.22943971 9.90067689 12.3125 9.875 C13.38435547 9.85824219 14.45621094 9.84148438 15.56054688 9.82421875 C16.58857422 9.81777344 17.61660156 9.81132812 18.67578125 9.8046875 C19.62364502 9.79421387 20.57150879 9.78374023 21.5480957 9.77294922 C24 10 24 10 27 12 C18.09 12 9.18 12 0 12 C0 8.04 0 4.08 0 0 Z " fill="#4D0BB2" transform="translate(144,13)"/>
<path d="M0 0 C1.23556641 0.01740234 1.23556641 0.01740234 2.49609375 0.03515625 C3.32238281 0.04417969 4.14867187 0.05320313 5 0.0625 C5.63808594 0.07410156 6.27617187 0.08570313 6.93359375 0.09765625 C6.93359375 0.75765625 6.93359375 1.41765625 6.93359375 2.09765625 C4.29359375 2.09765625 1.65359375 2.09765625 -1.06640625 2.09765625 C-0.99688 6.20585091 -0.90861271 10.31320082 -0.80395508 14.4206543 C-0.77097317 15.81409987 -0.74286058 17.20767047 -0.7199707 18.60131836 C-0.58532519 26.58551068 -0.14775853 33.637975 2.93359375 41.09765625 C2.27359375 41.09765625 1.61359375 41.09765625 0.93359375 41.09765625 C-3.55152882 33.79776758 -3.59586823 26.55876326 -3.4230957 18.22900391 C-3.37842217 16.07430808 -3.3615578 13.92072994 -3.34960938 11.765625 C-3.23588076 0.15292442 -3.23588076 0.15292442 0 0 Z " fill="#4208BE" transform="translate(192.06640625,3.90234375)"/>
<path d="M0 0 C0 0.99 0 1.98 0 3 C-6.37674796 6.67889305 -13.66916557 6.21156915 -20.8125 6.25 C-22.23272461 6.2809375 -22.23272461 6.2809375 -23.68164062 6.3125 C-30.00188235 6.3472983 -35.15019193 5.40410522 -41 3 C-38.29102129 1.64551065 -36.94788632 2.38440514 -34 3 C-31.7977606 3.14409736 -29.5925409 3.24590052 -27.38671875 3.31640625 C-26.13955078 3.35830078 -24.89238281 3.40019531 -23.60742188 3.44335938 C-22.31384766 3.48267578 -21.02027344 3.52199219 -19.6875 3.5625 C-17.71813477 3.62727539 -17.71813477 3.62727539 -15.70898438 3.69335938 C-12.47275712 3.79927227 -9.23645542 3.90134885 -6 4 C-6 3.34 -6 2.68 -6 2 C-4.02 1.34 -2.04 0.68 0 0 Z " fill="#4C1BC5" transform="translate(236,43)"/>
<path d="M0 0 C5.31691823 1.2063596 8.44484559 5.56159191 11.7890625 9.6328125 C9.9765625 10.2578125 9.9765625 10.2578125 7.7890625 10.6328125 C4.4334419 8.3957321 4.59628209 8.20764212 3.7890625 4.6328125 C0.80956398 2.99901934 0.80956398 2.99901934 -7.2109375 2.6328125 C-7.2109375 10.8828125 -7.2109375 19.1328125 -7.2109375 27.6328125 C-7.5409375 27.6328125 -7.8709375 27.6328125 -8.2109375 27.6328125 C-8.23980287 23.32032641 -8.25769005 19.00786488 -8.2734375 14.6953125 C-8.28181641 13.46361328 -8.29019531 12.23191406 -8.29882812 10.96289062 C-8.30205078 9.79306641 -8.30527344 8.62324219 -8.30859375 7.41796875 C-8.31383057 6.33394775 -8.31906738 5.24992676 -8.32446289 4.13305664 C-8.09931222 -0.82558433 -4.17949031 0.01204464 0 0 Z " fill="#2D08E1" transform="translate(255.2109375,3.3671875)"/>
<path d="M0 0 C0.99 0.33 1.98 0.66 3 1 C3 3.31 3 5.62 3 8 C2.01 8.33 1.02 8.66 0 9 C0 9.66 0 10.32 0 11 C-2.97 11 -5.94 11 -9 11 C-9 11.66 -9 12.32 -9 13 C-9.99 12.67 -10.98 12.34 -12 12 C-14.39254576 11.77439324 -16.78928123 11.59151405 -19.1875 11.4375 C-20.45980469 11.35371094 -21.73210938 11.26992188 -23.04296875 11.18359375 C-24.50669922 11.09271484 -24.50669922 11.09271484 -26 11 C-26 10.67 -26 10.34 -26 10 C-25.25314941 9.94465088 -24.50629883 9.88930176 -23.73681641 9.83227539 C-20.36587008 9.58001878 -16.99544681 9.3213415 -13.625 9.0625 C-12.449375 8.97548828 -11.27375 8.88847656 -10.0625 8.79882812 C-8.94101562 8.71181641 -7.81953125 8.62480469 -6.6640625 8.53515625 C-5.62717285 8.456604 -4.5902832 8.37805176 -3.52197266 8.29711914 C-1.00843528 8.14567233 -1.00843528 8.14567233 1 7 C1.15149298 3.37114676 1.15149298 3.37114676 0 0 Z " fill="#4D10E0" transform="translate(59,31)"/>
<path d="M0 0 C1.485 0.99 1.485 0.99 3 2 C7.38223053 3.25544983 11.79337496 3.11500101 16.3125 3.0625 C17.42334961 3.05573242 17.42334961 3.05573242 18.55664062 3.04882812 C20.37112899 3.03712175 22.18557534 3.01918898 24 3 C24.33 3.66 24.66 4.32 25 5 C17.08 5.33 9.16 5.66 1 6 C0.67 4.02 0.34 2.04 0 0 Z " fill="#4B0ACE" transform="translate(87,36)"/>
<path d="M0 0 C1.32 0.33 2.64 0.66 4 1 C3.67 11.23 3.34 21.46 3 32 C2.67 32 2.34 32 2 32 C2 22.1 2 12.2 2 2 C1.34 2 0.68 2 0 2 C0 1.34 0 0.68 0 0 Z " fill="#3C0BD0" transform="translate(84,4)"/>
<path d="M0 0 C0.33 0 0.66 0 1 0 C1.44603157 4.46031573 1.2983492 6.52615127 -1.125 10.375 C-4.25227907 13.23034176 -5.83789425 13.80641369 -10 14 C-9.34 13.01 -8.68 12.02 -8 11 C-6.68 11 -5.36 11 -4 11 C-4.33 9.68 -4.66 8.36 -5 7 C-4.01 7 -3.02 7 -2 7 C-1.855625 6.401875 -1.71125 5.80375 -1.5625 5.1875 C-1.1127561 3.43849596 -0.57107659 1.71322977 0 0 Z " fill="#4F13D8" transform="translate(125,34)"/>
<path d="M0 0 C1.65 0.33 3.3 0.66 5 1 C5 3.97 5 6.94 5 10 C4.01 9.67 3.02 9.34 2 9 C2.66 9 3.32 9 4 9 C3.34 7.35 2.68 5.7 2 4 C-1.3 3.67 -4.6 3.34 -8 3 C-8 2.67 -8 2.34 -8 2 C-5.36 2 -2.72 2 0 2 C0 1.34 0 0.68 0 0 Z " fill="#4410C8" transform="translate(64,3)"/>
<path d="M0 0 C1.44998472 2.89996945 0.88980405 5.22764553 0.625 8.4375 C0.53476562 9.59121094 0.44453125 10.74492187 0.3515625 11.93359375 C0 15 0 15 -1 18 C-3.39234714 11.88622396 -2.85991655 7.26371896 -1 1 C-0.67 0.67 -0.34 0.34 0 0 Z " fill="#4815BB" transform="translate(23,8)"/>
<path d="M0 0 C1.32 0.66 2.64 1.32 4 2 C3.01 2.495 3.01 2.495 2 3 C1.34227572 6.02934491 1.34227572 6.02934491 1 9 C2.65 9 4.3 9 6 9 C4.1875 10.0625 4.1875 10.0625 2 11 C1.01 10.67 0.02 10.34 -1 10 C-1.02689216 8.52093108 -1.04634621 7.04172517 -1.0625 5.5625 C-1.07410156 4.73878906 -1.08570312 3.91507813 -1.09765625 3.06640625 C-1 1 -1 1 0 0 Z " fill="#4721CE" transform="translate(22,39)"/>
<path d="M0 0 C0.66 0.33 1.32 0.66 2 1 C1.34 2.65 0.68 4.3 0 6 C0.66 6.66 1.32 7.32 2 8 C3.32 8 4.64 8 6 8 C6 8.66 6 9.32 6 10 C3.36 10 0.72 10 -2 10 C-2.1953125 3.9453125 -2.1953125 3.9453125 -2 2 C-1.34 1.34 -0.68 0.68 0 0 Z " fill="#4709CE" transform="translate(32,13)"/>
<path d="M0 0 C1.98 0.66 3.96 1.32 6 2 C6 2.99 6 3.98 6 5 C6.99 5.33 7.98 5.66 9 6 C10.1875 8.5625 10.1875 8.5625 11 11 C9.68 10.34 8.36 9.68 7 9 C7 8.34 7 7.68 7 7 C6.34 7 5.68 7 5 7 C3.7109375 5.46875 3.7109375 5.46875 2.375 3.5 C1.70597656 2.52546875 1.70597656 2.52546875 1.0234375 1.53125 C0.68570312 1.0259375 0.34796875 0.520625 0 0 Z " fill="#3F09E2" transform="translate(258,18)"/>
<path d="M0 0 C1.32 0.33 2.64 0.66 4 1 C2.63016497 4.16115776 2.0109362 4.9927092 -1 7 C-3.1875 6.625 -3.1875 6.625 -5 6 C-4.360625 5.566875 -3.72125 5.13375 -3.0625 4.6875 C-0.73253997 3.08760823 -0.73253997 3.08760823 0 0 Z " fill="#4D14D3" transform="translate(179,25)"/>
<path d="M0 0 C0.99 0.495 0.99 0.495 2 1 C3.1577506 4.47325181 3.06866652 7.36067448 3 11 C2.01 11.495 2.01 11.495 1 12 C0.67 8.04 0.34 4.08 0 0 Z " fill="#3206AE" transform="translate(183,11)"/>
<path d="M0 0 C7.4057508 -0.36421725 7.4057508 -0.36421725 9.9375 1.1875 C11.24912987 3.42498625 11.65447612 5.44312331 12 8 C11.01 8.33 10.02 8.66 9 9 C9 6.69 9 4.38 9 2 C6.03 1.67 3.06 1.34 0 1 C0 0.67 0 0.34 0 0 Z " fill="#3E06AD" transform="translate(164,13)"/>
<path d="M0 0 C0.99 0.33 1.98 0.66 3 1 C3 1.66 3 2.32 3 3 C4.423125 3.433125 4.423125 3.433125 5.875 3.875 C9 5 9 5 11 7 C6.93112431 6.71612495 5.25917878 6.22537285 2.125 3.5 C0 1 0 1 0 0 Z " fill="#4C1ACB" transform="translate(78,41)"/>
<path d="M0 0 C1.15518918 0.90484792 2.29885406 1.8244206 3.4375 2.75 C4.07558594 3.26046875 4.71367187 3.7709375 5.37109375 4.296875 C7.18810554 6.19667629 7.60423197 7.43586908 8 10 C7.34 10 6.68 10 6 10 C6 9.34 6 8.68 6 8 C5.34 8 4.68 8 4 8 C4 7.34 4 6.68 4 6 C3.34 6 2.68 6 2 6 C0.375 3.5 0.375 3.5 -1 1 C-0.67 0.67 -0.34 0.34 0 0 Z " fill="#420BE3" transform="translate(277,35)"/>
<path d="M0 0 C1.3303125 0.37125 1.3303125 0.37125 2.6875 0.75 C-0.21342502 2.68395001 -1.20924737 3.05131941 -4.5 3.375 C-5.758125 3.49875 -7.01625 3.6225 -8.3125 3.75 C-4.12788462 -0.31153846 -4.12788462 -0.31153846 0 0 Z " fill="#460FDB" transform="translate(32.3125,4.25)"/>
<path d="M0 0 C5.875 3.625 5.875 3.625 7 7 C6.34 7 5.68 7 5 7 C4.67 6.34 4.34 5.68 4 5 C1.97536745 4.34786708 1.97536745 4.34786708 0 4 C0 2.68 0 1.36 0 0 Z " fill="#4D0FC5" transform="translate(63,22)"/>
<path d="" fill="#000000" transform="translate(0,0)"/>
<path d="" fill="#000000" transform="translate(0,0)"/>
<path d="" fill="#000000" transform="translate(0,0)"/>
<path d="" fill="#000000" transform="translate(0,0)"/>
<path d="" fill="#000000" transform="translate(0,0)"/>
<path d="" fill="#000000" transform="translate(0,0)"/>
<path d="" fill="#000000" transform="translate(0,0)"/>
<path d="" fill="#000000" transform="translate(0,0)"/>
<path d="" fill="#000000" transform="translate(0,0)"/>
<path d="" fill="#000000" transform="translate(0,0)"/>
</svg>
